<?xml version="1.0" encoding="UTF-8" standalone="no"?>
<!-- Created with Inkscape (http://www.inkscape.org/) -->
<svg
   xmlns:ns0="http://www.iki.fi/pav/software/textext/"
   xmlns:dc="http://purl.org/dc/elements/1.1/"
   xmlns:cc="http://creativecommons.org/ns#"
   xmlns:rdf="http://www.w3.org/1999/02/22-rdf-syntax-ns#"
   xmlns:svg="http://www.w3.org/2000/svg"
   xmlns="http://www.w3.org/2000/svg"
   xmlns:xlink="http://www.w3.org/1999/xlink"
   xmlns:sodipodi="http://sodipodi.sourceforge.net/DTD/sodipodi-0.dtd"
   xmlns:inkscape="http://www.inkscape.org/namespaces/inkscape"
   width="540"
   height="360"
   id="svg4131"
   sodipodi:version="0.32"
   inkscape:version="0.46"
   version="1.0"
   sodipodi:docname="throat-geom.svg"
   inkscape:output_extension="org.inkscape.output.svg.inkscape">
  <sodipodi:namedview
     id="base"
     pagecolor="#ffffff"
     bordercolor="#666666"
     borderopacity="1.0"
     gridtolerance="10000"
     guidetolerance="10"
     objecttolerance="10"
     inkscape:pageopacity="0.0"
     inkscape:pageshadow="2"
     inkscape:zoom="1.7611111"
     inkscape:cx="270"
     inkscape:cy="180"
     inkscape:document-units="px"
     inkscape:current-layer="layer1"
     showgrid="false"
     units="in"
     inkscape:window-width="1440"
     inkscape:window-height="833"
     inkscape:window-x="-4"
     inkscape:window-y="797" />
  <defs
     id="defs4133">
    <marker
       inkscape:stockid="Arrow1Mend"
       orient="auto"
       refY="0.0"
       refX="0.0"
       id="Arrow1Mend"
       style="overflow:visible;">
      <path
         id="path4694"
         d="M 0.0,0.0 L 5.0,-5.0 L -12.5,0.0 L 5.0,5.0 L 0.0,0.0 z "
         style="fill-rule:evenodd;stroke:#000000;stroke-width:1.0pt;marker-start:none;"
         transform="scale(0.4) rotate(180) translate(10,0)" />
    </marker>
    <marker
       style="overflow:visible"
       id="SquareM"
       refX="0.0"
       refY="0.0"
       orient="auto"
       inkscape:stockid="SquareM">
      <path
         transform="scale(0.4)"
         style="fill-rule:evenodd;stroke:#000000;stroke-width:1.0pt;marker-start:none"
         d="M -5.0,-5.0 L -5.0,5.0 L 5.0,5.0 L 5.0,-5.0 L -5.0,-5.0 z "
         id="path4759" />
    </marker>
    <marker
       inkscape:stockid="DistanceEnd"
       orient="auto"
       refY="0.0"
       refX="0.0"
       id="DistanceEnd"
       style="overflow:visible">
      <g
         id="g4741">
        <path
           id="path2316"
           d="M 0,0 L -2,0"
           style="fill:none;stroke:#ffffff;stroke-width:1.15;stroke-linecap:square" />
        <path
           id="path2312"
           d="M 0,0 L -13,4 L -9,0 -13,-4 L 0,0 z "
           style="fill:#000000;fill-rule:evenodd;stroke:none" />
        <path
           id="path2314"
           d="M 0,-4 L 0,40"
           style="fill:none;stroke:#000000;stroke-width:1;stroke-linecap:square" />
      </g>
    </marker>
    <marker
       inkscape:stockid="StopL"
       orient="auto"
       refY="0.0"
       refX="0.0"
       id="StopL"
       style="overflow:visible">
      <path
         id="path4855"
         d="M 0.0,5.65 L 0.0,-5.65"
         style="fill:none;fill-opacity:0.75000000;fill-rule:evenodd;stroke:#000000;stroke-width:1.0pt"
         transform="scale(0.8)" />
    </marker>
    <marker
       inkscape:stockid="StopM"
       orient="auto"
       refY="0.0"
       refX="0.0"
       id="StopM"
       style="overflow:visible">
      <path
         id="path4858"
         d="M 0.0,5.65 L 0.0,-5.65"
         style="fill:none;fill-opacity:0.75000000;fill-rule:evenodd;stroke:#000000;stroke-width:1.0pt"
         transform="scale(0.4)" />
    </marker>
    <marker
       style="overflow:visible"
       id="DistanceStart"
       refX="0.0"
       refY="0.0"
       orient="auto"
       inkscape:stockid="DistanceStart">
      <g
         id="g2300">
        <path
           style="fill:none;stroke:#ffffff;stroke-width:1.15;stroke-linecap:square"
           d="M 0,0 L 2,0"
           id="path2306" />
        <path
           style="fill:#000000;fill-rule:evenodd;stroke:none"
           d="M 0,0 L 13,4 L 9,0 13,-4 L 0,0 z "
           id="path2302" />
        <path
           style="fill:none;stroke:#000000;stroke-width:1;stroke-linecap:square"
           d="M 0,-4 L 0,40"
           id="path2304" />
      </g>
    </marker>
    <inkscape:perspective
       sodipodi:type="inkscape:persp3d"
       inkscape:vp_x="0 : 526.18109 : 1"
       inkscape:vp_y="0 : 1000 : 0"
       inkscape:vp_z="744.09448 : 526.18109 : 1"
       inkscape:persp3d-origin="372.04724 : 350.78739 : 1"
       id="perspective4139" />
  </defs>
  <metadata
     id="metadata4136">
    <rdf:RDF>
      <cc:Work
         rdf:about="">
        <dc:format>image/svg+xml</dc:format>
        <dc:type
           rdf:resource="http://purl.org/dc/dcmitype/StillImage" />
      </cc:Work>
    </rdf:RDF>
  </metadata>
  <g
     inkscape:label="Layer 1"
     inkscape:groupmode="layer"
     id="layer1">
    <path
       style="fill:none;fill-rule:evenodd;stroke:#000000;stroke-width:1.30492973px;stroke-linecap:butt;stroke-linejoin:miter;stroke-opacity:1"
       d="M 488.78022,176.18178 C 46.286924,141.623 48.548297,103.15188 48.548297,103.15188"
       id="path4161" />
    <path
       style="fill:none;fill-rule:evenodd;stroke:#000000;stroke-width:1.30492973px;stroke-linecap:butt;stroke-linejoin:miter;stroke-opacity:1"
       d="M 488.01543,189.70196 C 45.544728,224.54891 47.831156,263.01857 47.831156,263.01857"
       id="path4163" />
    <path
       style="fill:none;fill-rule:evenodd;stroke:#000000;stroke-width:1.30499995;stroke-linecap:butt;stroke-linejoin:miter;stroke-miterlimit:4;stroke-dasharray:none;stroke-opacity:1"
       d="M 485.3367,175.98582 C 559.10225,182.87955 493.65773,189.51038 485.00711,189.99333"
       id="path4165"
       sodipodi:nodetypes="cc" />
    <path
       style="fill:none;fill-rule:evenodd;stroke:#000000;stroke-width:1px;stroke-linecap:butt;stroke-linejoin:miter;stroke-opacity:1"
       d="M 55.646687,109.02208 C 34.136446,57.625171 40.881353,21.013801 41.451104,19.873817"
       id="path4676"
       sodipodi:nodetypes="cc" />
    <path
       style="fill:none;fill-rule:evenodd;stroke:#000000;stroke-width:1px;stroke-linecap:butt;stroke-linejoin:miter;stroke-opacity:1"
       d="M 58.924012,254.10095 C 37.413769,305.49786 44.158676,342.10923 44.728427,343.24921"
       id="path4678"
       sodipodi:nodetypes="cc" />
    <g
       transform="matrix(2,0,0,2,-172.6183,-68.990537)"
       ns0:text="$\\rho$\n"
       ns0:preamble=""
       id="g7099">
      <defs
         id="defs7101">
        <g
           id="g7103">
          <symbol
             style="overflow:visible"
             overflow="visible"
             id="textext-10c270a1-0">
            <path
               style="stroke:none"
               d=""
               id="path7106" />
          </symbol>
          <symbol
             style="overflow:visible"
             overflow="visible"
             id="textext-10c270a1-1">
            <path
               style="stroke:none"
               d="M 0.328125,1.71875 C 0.296875,1.84375 0.296875,1.859375 0.296875,1.890625 C 0.296875,2.03125 0.40625,2.15625 0.578125,2.15625 C 0.78125,2.15625 0.90625,1.96875 0.921875,1.9375 C 0.984375,1.859375 1.296875,0.515625 1.5625,-0.5625 C 1.765625,-0.15625 2.078125,0.109375 2.546875,0.109375 C 3.71875,0.109375 5,-1.296875 5,-2.78125 C 5,-3.84375 4.34375,-4.40625 3.625,-4.40625 C 2.65625,-4.40625 1.609375,-3.40625 1.3125,-2.1875 L 0.328125,1.71875 z M 2.546875,-0.109375 C 1.84375,-0.109375 1.6875,-0.90625 1.6875,-1 C 1.6875,-1.03125 1.734375,-1.234375 1.765625,-1.359375 C 2.046875,-2.484375 2.140625,-2.84375 2.359375,-3.234375 C 2.796875,-3.96875 3.296875,-4.1875 3.59375,-4.1875 C 3.96875,-4.1875 4.28125,-3.890625 4.28125,-3.203125 C 4.28125,-2.65625 4,-1.546875 3.734375,-1.0625 C 3.40625,-0.421875 2.921875,-0.109375 2.546875,-0.109375 z"
               id="path7109" />
          </symbol>
        </g>
      </defs>
      <g
         id="textext-10c270a1-2">
        <g
           style="fill:#000000;fill-opacity:1"
           id="g7112">
          <use
             height="360"
             width="540"
             xlink:href="#textext-10c270a1-1"
             x="223.43201"
             y="134.765"
             id="use7114" />
        </g>
      </g>
    </g>
    <g
       id="g7176"
       ns0:preamble=""
       ns0:text="$\\rho_{UV}$\n"
       transform="matrix(2,0,0,2,-409.96846,-68.990537)">
      <defs
         id="defs7178">
        <g
           id="g7180">
          <symbol
             id="textext-82910831-0"
             overflow="visible"
             style="overflow:visible">
            <path
               id="path7183"
               d=""
               style="stroke:none" />
          </symbol>
          <symbol
             id="textext-82910831-1"
             overflow="visible"
             style="overflow:visible">
            <path
               id="path7186"
               d="M 0.328125,1.71875 C 0.296875,1.84375 0.296875,1.859375 0.296875,1.890625 C 0.296875,2.03125 0.40625,2.15625 0.578125,2.15625 C 0.78125,2.15625 0.90625,1.96875 0.921875,1.9375 C 0.984375,1.859375 1.296875,0.515625 1.5625,-0.5625 C 1.765625,-0.15625 2.078125,0.109375 2.546875,0.109375 C 3.71875,0.109375 5,-1.296875 5,-2.78125 C 5,-3.84375 4.34375,-4.40625 3.625,-4.40625 C 2.65625,-4.40625 1.609375,-3.40625 1.3125,-2.1875 L 0.328125,1.71875 z M 2.546875,-0.109375 C 1.84375,-0.109375 1.6875,-0.90625 1.6875,-1 C 1.6875,-1.03125 1.734375,-1.234375 1.765625,-1.359375 C 2.046875,-2.484375 2.140625,-2.84375 2.359375,-3.234375 C 2.796875,-3.96875 3.296875,-4.1875 3.59375,-4.1875 C 3.96875,-4.1875 4.28125,-3.890625 4.28125,-3.203125 C 4.28125,-2.65625 4,-1.546875 3.734375,-1.0625 C 3.40625,-0.421875 2.921875,-0.109375 2.546875,-0.109375 z"
               style="stroke:none" />
          </symbol>
          <symbol
             id="textext-82910831-2"
             overflow="visible"
             style="overflow:visible">
            <path
               id="path7189"
               d=""
               style="stroke:none" />
          </symbol>
          <symbol
             id="textext-82910831-3"
             overflow="visible"
             style="overflow:visible">
            <path
               id="path7192"
               d="M 4.921875,-4 C 5,-4.265625 5.109375,-4.5 5.671875,-4.515625 C 5.703125,-4.515625 5.8125,-4.515625 5.8125,-4.65625 C 5.8125,-4.703125 5.765625,-4.765625 5.703125,-4.765625 C 5.484375,-4.765625 5.21875,-4.734375 4.984375,-4.734375 C 4.75,-4.734375 4.453125,-4.765625 4.25,-4.765625 C 4.21875,-4.765625 4.109375,-4.765625 4.109375,-4.609375 C 4.109375,-4.515625 4.203125,-4.515625 4.265625,-4.515625 C 4.59375,-4.5 4.703125,-4.390625 4.703125,-4.21875 C 4.703125,-4.1875 4.703125,-4.15625 4.703125,-4.125 C 4.59375,-3.671875 4.078125,-1.578125 4,-1.359375 C 3.609375,-0.46875 2.78125,-0.109375 2.21875,-0.109375 C 1.75,-0.109375 1.25,-0.34375 1.25,-1.03125 C 1.25,-1.203125 1.28125,-1.375 1.3125,-1.53125 L 2,-4.21875 C 2.0625,-4.453125 2.0625,-4.515625 2.609375,-4.515625 C 2.71875,-4.515625 2.8125,-4.515625 2.8125,-4.65625 C 2.8125,-4.6875 2.796875,-4.765625 2.703125,-4.765625 C 2.5,-4.765625 2,-4.734375 1.796875,-4.734375 C 1.671875,-4.734375 1.421875,-4.734375 1.3125,-4.734375 C 1.171875,-4.75 1,-4.765625 0.875,-4.765625 C 0.828125,-4.765625 0.71875,-4.765625 0.71875,-4.609375 C 0.71875,-4.515625 0.8125,-4.515625 0.953125,-4.515625 C 0.953125,-4.515625 1.09375,-4.515625 1.21875,-4.5 C 1.359375,-4.484375 1.375,-4.46875 1.375,-4.390625 C 1.375,-4.359375 1.296875,-4.078125 1.265625,-3.9375 L 1.109375,-3.3125 C 0.984375,-2.84375 0.8125,-2.09375 0.703125,-1.71875 C 0.640625,-1.4375 0.640625,-1.375 0.640625,-1.234375 C 0.640625,-0.375 1.359375,0.140625 2.1875,0.140625 C 3.15625,0.140625 4.078125,-0.640625 4.3125,-1.546875 L 4.921875,-4 z"
               style="stroke:none" />
          </symbol>
          <symbol
             id="textext-82910831-4"
             overflow="visible"
             style="overflow:visible">
            <path
               id="path7195"
               d="M 4.984375,-3.9375 C 5.234375,-4.3125 5.46875,-4.484375 5.84375,-4.515625 C 5.921875,-4.515625 6,-4.515625 6,-4.65625 C 6,-4.6875 5.984375,-4.765625 5.90625,-4.765625 C 5.734375,-4.765625 5.515625,-4.734375 5.34375,-4.734375 C 5.125,-4.734375 4.828125,-4.765625 4.625,-4.765625 C 4.5625,-4.765625 4.484375,-4.734375 4.484375,-4.609375 C 4.484375,-4.515625 4.578125,-4.515625 4.609375,-4.515625 C 4.828125,-4.5 4.890625,-4.40625 4.890625,-4.3125 C 4.890625,-4.203125 4.84375,-4.140625 4.765625,-4.03125 L 2.484375,-0.65625 L 1.84375,-4.21875 C 1.828125,-4.28125 1.828125,-4.296875 1.828125,-4.328125 C 1.828125,-4.515625 2.21875,-4.515625 2.265625,-4.515625 C 2.390625,-4.515625 2.484375,-4.515625 2.484375,-4.65625 C 2.484375,-4.671875 2.46875,-4.765625 2.359375,-4.765625 C 2.15625,-4.765625 1.671875,-4.734375 1.46875,-4.734375 C 1.296875,-4.734375 0.859375,-4.765625 0.6875,-4.765625 C 0.625,-4.765625 0.546875,-4.734375 0.546875,-4.609375 C 0.546875,-4.515625 0.640625,-4.515625 0.71875,-4.515625 C 1.109375,-4.515625 1.125,-4.46875 1.15625,-4.28125 L 1.921875,-0.046875 C 1.9375,0.09375 1.953125,0.140625 2.078125,0.140625 C 2.21875,0.140625 2.25,0.09375 2.328125,-0.015625 L 4.984375,-3.9375 z"
               style="stroke:none" />
          </symbol>
        </g>
      </defs>
      <g
         id="textext-82910831-5">
        <g
           id="g7198"
           style="fill:#000000;fill-opacity:1">
          <use
             id="use7200"
             y="134.765"
             x="223.43201"
             xlink:href="#textext-82910831-1"
             width="540"
             height="360" />
        </g>
        <g
           id="g7202"
           style="fill:#000000;fill-opacity:1">
          <use
             id="use7204"
             y="136.259"
             x="228.58299"
             xlink:href="#textext-82910831-3"
             width="540"
             height="360" />
        </g>
        <g
           id="g7206"
           style="fill:#000000;fill-opacity:1">
          <use
             id="use7208"
             y="136.259"
             x="234.75621"
             xlink:href="#textext-82910831-4"
             width="540"
             height="360" />
        </g>
      </g>
    </g>
    <g
       transform="matrix(2,0,0,2,67.570978,-64.818662)"
       ns0:text="$0$\n"
       ns0:preamble=""
       id="g7310">
      <defs
         id="defs7312">
        <g
           id="g7314">
          <symbol
             style="overflow:visible"
             overflow="visible"
             id="textext-f5a33723-0">
            <path
               style="stroke:none"
               d=""
               id="path7317" />
          </symbol>
          <symbol
             style="overflow:visible"
             overflow="visible"
             id="textext-f5a33723-1">
            <path
               style="stroke:none"
               d="M 4.578125,-3.1875 C 4.578125,-3.984375 4.53125,-4.78125 4.1875,-5.515625 C 3.734375,-6.484375 2.90625,-6.640625 2.5,-6.640625 C 1.890625,-6.640625 1.171875,-6.375 0.75,-5.453125 C 0.4375,-4.765625 0.390625,-3.984375 0.390625,-3.1875 C 0.390625,-2.4375 0.421875,-1.546875 0.84375,-0.78125 C 1.265625,0.015625 2,0.21875 2.484375,0.21875 C 3.015625,0.21875 3.78125,0.015625 4.21875,-0.9375 C 4.53125,-1.625 4.578125,-2.40625 4.578125,-3.1875 z M 2.484375,0 C 2.09375,0 1.5,-0.25 1.328125,-1.203125 C 1.21875,-1.796875 1.21875,-2.71875 1.21875,-3.3125 C 1.21875,-3.953125 1.21875,-4.609375 1.296875,-5.140625 C 1.484375,-6.328125 2.234375,-6.421875 2.484375,-6.421875 C 2.8125,-6.421875 3.46875,-6.234375 3.65625,-5.25 C 3.765625,-4.6875 3.765625,-3.9375 3.765625,-3.3125 C 3.765625,-2.5625 3.765625,-1.890625 3.65625,-1.25 C 3.5,-0.296875 2.9375,0 2.484375,0 z"
               id="path7320" />
          </symbol>
        </g>
      </defs>
      <g
         id="textext-f5a33723-2">
        <g
           style="fill:#000000;fill-opacity:1"
           id="g7323">
          <use
             height="360"
             width="540"
             xlink:href="#textext-f5a33723-1"
             x="223.43201"
             y="134.765"
             id="use7325" />
        </g>
      </g>
    </g>
    <g
       id="g7447"
       ns0:preamble=""
       ns0:text="Bulk\n"
       transform="matrix(2,0,0,2,-445.17351,-180)">
      <defs
         id="defs7449">
        <g
           id="g7451">
          <symbol
             id="textext-28b2ee16-0"
             overflow="visible"
             style="overflow:visible">
            <path
               id="path7454"
               d=""
               style="stroke:none" />
          </symbol>
          <symbol
             id="textext-28b2ee16-1"
             overflow="visible"
             style="overflow:visible">
            <path
               id="path7457"
               d="M 2.21875,-3.65625 L 2.21875,-6.09375 C 2.21875,-6.4375 2.234375,-6.5 2.703125,-6.5 L 3.9375,-6.5 C 4.90625,-6.5 5.25,-5.65625 5.25,-5.125 C 5.25,-4.484375 4.765625,-3.65625 3.65625,-3.65625 L 2.21875,-3.65625 z M 4.5625,-3.5625 C 5.53125,-3.75 6.21875,-4.390625 6.21875,-5.125 C 6.21875,-5.984375 5.296875,-6.8125 4,-6.8125 L 0.359375,-6.8125 L 0.359375,-6.5 L 0.59375,-6.5 C 1.359375,-6.5 1.390625,-6.390625 1.390625,-6.03125 L 1.390625,-0.78125 C 1.390625,-0.421875 1.359375,-0.3125 0.59375,-0.3125 L 0.359375,-0.3125 L 0.359375,0 L 4.265625,0 C 5.59375,0 6.484375,-0.890625 6.484375,-1.828125 C 6.484375,-2.6875 5.671875,-3.4375 4.5625,-3.5625 z M 3.953125,-0.3125 L 2.703125,-0.3125 C 2.234375,-0.3125 2.21875,-0.375 2.21875,-0.703125 L 2.21875,-3.421875 L 4.09375,-3.421875 C 5.078125,-3.421875 5.5,-2.5 5.5,-1.828125 C 5.5,-1.125 4.96875,-0.3125 3.953125,-0.3125 z"
               style="stroke:none" />
          </symbol>
          <symbol
             id="textext-28b2ee16-2"
             overflow="visible"
             style="overflow:visible">
            <path
               id="path7460"
               d="M 3.890625,-0.78125 L 3.890625,0.109375 L 5.328125,0 L 5.328125,-0.3125 C 4.640625,-0.3125 4.5625,-0.375 4.5625,-0.875 L 4.5625,-4.40625 L 3.09375,-4.296875 L 3.09375,-3.984375 C 3.78125,-3.984375 3.875,-3.921875 3.875,-3.421875 L 3.875,-1.65625 C 3.875,-0.78125 3.390625,-0.109375 2.65625,-0.109375 C 1.828125,-0.109375 1.78125,-0.578125 1.78125,-1.09375 L 1.78125,-4.40625 L 0.3125,-4.296875 L 0.3125,-3.984375 C 1.09375,-3.984375 1.09375,-3.953125 1.09375,-3.078125 L 1.09375,-1.578125 C 1.09375,-0.796875 1.09375,0.109375 2.609375,0.109375 C 3.171875,0.109375 3.609375,-0.171875 3.890625,-0.78125 z"
               style="stroke:none" />
          </symbol>
          <symbol
             id="textext-28b2ee16-3"
             overflow="visible"
             style="overflow:visible">
            <path
               id="path7463"
               d="M 1.765625,-6.921875 L 0.328125,-6.8125 L 0.328125,-6.5 C 1.03125,-6.5 1.109375,-6.4375 1.109375,-5.9375 L 1.109375,-0.75 C 1.109375,-0.3125 1,-0.3125 0.328125,-0.3125 L 0.328125,0 C 0.65625,-0.015625 1.1875,-0.03125 1.4375,-0.03125 C 1.6875,-0.03125 2.171875,-0.015625 2.546875,0 L 2.546875,-0.3125 C 1.875,-0.3125 1.765625,-0.3125 1.765625,-0.75 L 1.765625,-6.921875 z"
               style="stroke:none" />
          </symbol>
          <symbol
             id="textext-28b2ee16-4"
             overflow="visible"
             style="overflow:visible">
            <path
               id="path7466"
               d="M 2.859375,-2.625 C 2.84375,-2.640625 2.796875,-2.703125 2.796875,-2.734375 C 2.796875,-2.765625 3.515625,-3.375 3.609375,-3.453125 C 4.234375,-3.953125 4.65625,-3.984375 4.859375,-3.984375 L 4.859375,-4.296875 C 4.578125,-4.265625 4.453125,-4.265625 4.171875,-4.265625 C 3.8125,-4.265625 3.1875,-4.28125 3.046875,-4.296875 L 3.046875,-3.984375 C 3.234375,-3.984375 3.34375,-3.875 3.34375,-3.734375 C 3.34375,-3.53125 3.203125,-3.421875 3.125,-3.34375 L 1.71875,-2.140625 L 1.71875,-6.921875 L 0.28125,-6.8125 L 0.28125,-6.5 C 0.984375,-6.5 1.0625,-6.4375 1.0625,-5.9375 L 1.0625,-0.75 C 1.0625,-0.3125 0.953125,-0.3125 0.28125,-0.3125 L 0.28125,0 C 0.609375,-0.015625 1.078125,-0.03125 1.359375,-0.03125 C 1.671875,-0.03125 2.0625,-0.015625 2.46875,0 L 2.46875,-0.3125 C 1.796875,-0.3125 1.6875,-0.3125 1.6875,-0.75 L 1.6875,-1.78125 L 2.328125,-2.328125 C 3.09375,-1.28125 3.515625,-0.71875 3.515625,-0.53125 C 3.515625,-0.34375 3.34375,-0.3125 3.15625,-0.3125 L 3.15625,0 C 3.421875,-0.015625 4.015625,-0.03125 4.234375,-0.03125 C 4.515625,-0.03125 4.8125,-0.015625 5.09375,0 L 5.09375,-0.3125 C 4.71875,-0.3125 4.5,-0.3125 4.125,-0.84375 L 2.859375,-2.625 z"
               style="stroke:none" />
          </symbol>
        </g>
      </defs>
      <g
         id="textext-28b2ee16-5">
        <g
           id="g7469"
           style="fill:#000000;fill-opacity:1">
          <use
             id="use7471"
             y="134.765"
             x="223.43201"
             xlink:href="#textext-28b2ee16-1"
             width="540"
             height="360" />
          <use
             id="use7473"
             y="134.765"
             x="230.48851"
             xlink:href="#textext-28b2ee16-2"
             width="540"
             height="360" />
          <use
             id="use7475"
             y="134.765"
             x="236.02373"
             xlink:href="#textext-28b2ee16-3"
             width="540"
             height="360" />
          <use
             id="use7477"
             y="134.765"
             x="238.79134"
             xlink:href="#textext-28b2ee16-4"
             width="540"
             height="360" />
        </g>
      </g>
    </g>
    <g
       transform="matrix(2,0,0,2,-207.82335,-132.30284)"
       ns0:text="Throat\n"
       ns0:preamble=""
       id="g7637">
      <defs
         id="defs7639">
        <g
           id="g7641">
          <symbol
             style="overflow:visible"
             overflow="visible"
             id="textext-d800d8c1-0">
            <path
               style="stroke:none"
               d=""
               id="path7644" />
          </symbol>
          <symbol
             style="overflow:visible"
             overflow="visible"
             id="textext-d800d8c1-1">
            <path
               style="stroke:none"
               d="M 6.640625,-6.75 L 0.546875,-6.75 L 0.359375,-4.5 L 0.609375,-4.5 C 0.75,-6.109375 0.890625,-6.4375 2.40625,-6.4375 C 2.578125,-6.4375 2.84375,-6.4375 2.9375,-6.421875 C 3.15625,-6.375 3.15625,-6.265625 3.15625,-6.046875 L 3.15625,-0.78125 C 3.15625,-0.453125 3.15625,-0.3125 2.109375,-0.3125 L 1.703125,-0.3125 L 1.703125,0 C 2.109375,-0.03125 3.125,-0.03125 3.59375,-0.03125 C 4.046875,-0.03125 5.078125,-0.03125 5.484375,0 L 5.484375,-0.3125 L 5.078125,-0.3125 C 4.03125,-0.3125 4.03125,-0.453125 4.03125,-0.78125 L 4.03125,-6.046875 C 4.03125,-6.234375 4.03125,-6.375 4.21875,-6.421875 C 4.328125,-6.4375 4.59375,-6.4375 4.78125,-6.4375 C 6.296875,-6.4375 6.4375,-6.109375 6.578125,-4.5 L 6.828125,-4.5 L 6.640625,-6.75 z"
               id="path7647" />
          </symbol>
          <symbol
             style="overflow:visible"
             overflow="visible"
             id="textext-d800d8c1-2">
            <path
               style="stroke:none"
               d="M 4.5625,-2.515625 C 4.5625,-3.375 4.5625,-3.671875 4.25,-4.03125 C 4.109375,-4.203125 3.78125,-4.40625 3.203125,-4.40625 C 2.359375,-4.40625 1.921875,-3.8125 1.765625,-3.453125 L 1.75,-3.453125 L 1.75,-6.921875 L 0.3125,-6.8125 L 0.3125,-6.5 C 1.015625,-6.5 1.09375,-6.4375 1.09375,-5.9375 L 1.09375,-0.75 C 1.09375,-0.3125 0.984375,-0.3125 0.3125,-0.3125 L 0.3125,0 C 0.671875,-0.015625 1.171875,-0.03125 1.453125,-0.03125 C 1.703125,-0.03125 2.21875,-0.015625 2.5625,0 L 2.5625,-0.3125 C 1.890625,-0.3125 1.78125,-0.3125 1.78125,-0.75 L 1.78125,-2.59375 C 1.78125,-3.625 2.5,-4.1875 3.125,-4.1875 C 3.765625,-4.1875 3.875,-3.65625 3.875,-3.078125 L 3.875,-0.75 C 3.875,-0.3125 3.765625,-0.3125 3.09375,-0.3125 L 3.09375,0 C 3.4375,-0.015625 3.953125,-0.03125 4.21875,-0.03125 C 4.46875,-0.03125 5,-0.015625 5.328125,0 L 5.328125,-0.3125 C 4.8125,-0.3125 4.5625,-0.3125 4.5625,-0.609375 L 4.5625,-2.515625 z"
               id="path7650" />
          </symbol>
          <symbol
             style="overflow:visible"
             overflow="visible"
             id="textext-d800d8c1-3">
            <path
               style="stroke:none"
               d="M 1.71875,-0.78125 L 1.71875,-2.3125 C 1.71875,-3.296875 2.140625,-4.1875 2.890625,-4.1875 C 2.953125,-4.1875 2.984375,-4.1875 3,-4.171875 C 2.96875,-4.171875 2.765625,-4.046875 2.765625,-3.78125 C 2.765625,-3.515625 2.984375,-3.359375 3.203125,-3.359375 C 3.375,-3.359375 3.625,-3.484375 3.625,-3.796875 C 3.625,-4.109375 3.3125,-4.40625 2.890625,-4.40625 C 2.15625,-4.40625 1.796875,-3.734375 1.671875,-3.3125 L 1.671875,-4.40625 L 0.28125,-4.296875 L 0.28125,-3.984375 C 0.984375,-3.984375 1.0625,-3.921875 1.0625,-3.421875 L 1.0625,-0.75 C 1.0625,-0.3125 0.953125,-0.3125 0.28125,-0.3125 L 0.28125,0 C 0.671875,-0.015625 1.140625,-0.03125 1.421875,-0.03125 C 1.8125,-0.03125 2.28125,-0.03125 2.6875,0 L 2.6875,-0.3125 L 2.46875,-0.3125 C 1.734375,-0.3125 1.71875,-0.421875 1.71875,-0.78125 z"
               id="path7653" />
          </symbol>
          <symbol
             style="overflow:visible"
             overflow="visible"
             id="textext-d800d8c1-4">
            <path
               style="stroke:none"
               d="M 4.6875,-2.140625 C 4.6875,-3.40625 3.703125,-4.46875 2.5,-4.46875 C 1.25,-4.46875 0.28125,-3.375 0.28125,-2.140625 C 0.28125,-0.84375 1.3125,0.109375 2.484375,0.109375 C 3.6875,0.109375 4.6875,-0.875 4.6875,-2.140625 z M 2.5,-0.140625 C 2.0625,-0.140625 1.625,-0.34375 1.359375,-0.8125 C 1.109375,-1.25 1.109375,-1.859375 1.109375,-2.21875 C 1.109375,-2.609375 1.109375,-3.140625 1.34375,-3.578125 C 1.609375,-4.03125 2.078125,-4.25 2.484375,-4.25 C 2.921875,-4.25 3.34375,-4.03125 3.609375,-3.59375 C 3.875,-3.171875 3.875,-2.59375 3.875,-2.21875 C 3.875,-1.859375 3.875,-1.3125 3.65625,-0.875 C 3.421875,-0.421875 2.984375,-0.140625 2.5,-0.140625 z"
               id="path7656" />
          </symbol>
          <symbol
             style="overflow:visible"
             overflow="visible"
             id="textext-d800d8c1-5">
            <path
               style="stroke:none"
               d="M 3.3125,-0.75 C 3.359375,-0.359375 3.625,0.0625 4.09375,0.0625 C 4.3125,0.0625 4.921875,-0.078125 4.921875,-0.890625 L 4.921875,-1.453125 L 4.671875,-1.453125 L 4.671875,-0.890625 C 4.671875,-0.3125 4.421875,-0.25 4.3125,-0.25 C 3.984375,-0.25 3.9375,-0.703125 3.9375,-0.75 L 3.9375,-2.734375 C 3.9375,-3.15625 3.9375,-3.546875 3.578125,-3.921875 C 3.1875,-4.3125 2.6875,-4.46875 2.21875,-4.46875 C 1.390625,-4.46875 0.703125,-4 0.703125,-3.34375 C 0.703125,-3.046875 0.90625,-2.875 1.171875,-2.875 C 1.453125,-2.875 1.625,-3.078125 1.625,-3.328125 C 1.625,-3.453125 1.578125,-3.78125 1.109375,-3.78125 C 1.390625,-4.140625 1.875,-4.25 2.1875,-4.25 C 2.6875,-4.25 3.25,-3.859375 3.25,-2.96875 L 3.25,-2.609375 C 2.734375,-2.578125 2.046875,-2.546875 1.421875,-2.25 C 0.671875,-1.90625 0.421875,-1.390625 0.421875,-0.953125 C 0.421875,-0.140625 1.390625,0.109375 2.015625,0.109375 C 2.671875,0.109375 3.125,-0.296875 3.3125,-0.75 z M 3.25,-2.390625 L 3.25,-1.390625 C 3.25,-0.453125 2.53125,-0.109375 2.078125,-0.109375 C 1.59375,-0.109375 1.1875,-0.453125 1.1875,-0.953125 C 1.1875,-1.5 1.609375,-2.328125 3.25,-2.390625 z"
               id="path7659" />
          </symbol>
          <symbol
             style="overflow:visible"
             overflow="visible"
             id="textext-d800d8c1-6">
            <path
               style="stroke:none"
               d="M 1.71875,-3.984375 L 3.15625,-3.984375 L 3.15625,-4.296875 L 1.71875,-4.296875 L 1.71875,-6.125 L 1.46875,-6.125 C 1.46875,-5.3125 1.171875,-4.25 0.1875,-4.203125 L 0.1875,-3.984375 L 1.03125,-3.984375 L 1.03125,-1.234375 C 1.03125,-0.015625 1.96875,0.109375 2.328125,0.109375 C 3.03125,0.109375 3.3125,-0.59375 3.3125,-1.234375 L 3.3125,-1.796875 L 3.0625,-1.796875 L 3.0625,-1.25 C 3.0625,-0.515625 2.765625,-0.140625 2.390625,-0.140625 C 1.71875,-0.140625 1.71875,-1.046875 1.71875,-1.21875 L 1.71875,-3.984375 z"
               id="path7662" />
          </symbol>
        </g>
      </defs>
      <g
         id="textext-d800d8c1-7">
        <g
           style="fill:#000000;fill-opacity:1"
           id="g7665">
          <use
             height="360"
             width="540"
             xlink:href="#textext-d800d8c1-1"
             x="223.43201"
             y="134.765"
             id="use7667" />
          <use
             height="360"
             width="540"
             xlink:href="#textext-d800d8c1-2"
             x="230.62698"
             y="134.765"
             id="use7669" />
          <use
             height="360"
             width="540"
             xlink:href="#textext-d800d8c1-3"
             x="236.16222"
             y="134.765"
             id="use7671" />
          <use
             height="360"
             width="540"
             xlink:href="#textext-d800d8c1-4"
             x="240.06456"
             y="134.765"
             id="use7673" />
          <use
             height="360"
             width="540"
             xlink:href="#textext-d800d8c1-5"
             x="245.04587"
             y="134.765"
             id="use7675" />
          <use
             height="360"
             width="540"
             xlink:href="#textext-d800d8c1-6"
             x="250.02716"
             y="134.765"
             id="use7677" />
        </g>
      </g>
    </g>
    <path
       transform="matrix(0.9988824,0,0,1.0629988,-70.786274,127.30834)"
       d="M 182.83194,52.239746 A 11.349287,53.398438 0 1 1 160.13336,52.239746 A 11.349287,53.398438 0 1 1 182.83194,52.239746 z"
       sodipodi:ry="53.398438"
       sodipodi:rx="11.349287"
       sodipodi:cy="52.239746"
       sodipodi:cx="171.48265"
       id="path7784"
       style="opacity:1;fill:none;stroke:#000000;stroke-width:1.30499995;stroke-miterlimit:4;stroke-dasharray:none;stroke-dashoffset:0;stroke-opacity:1"
       sodipodi:type="arc" />
    <path
       style="opacity:0.5;fill:none;fill-rule:evenodd;stroke:#000000;stroke-width:1px;stroke-linecap:butt;stroke-linejoin:miter;marker-start:url(#StopL);marker-end:url(#StopL);stroke-opacity:1"
       d="M 51.104101,183.40694 C 520.69401,183.40694 519.55836,183.40694 519.55836,183.40694"
       id="path4680" />
    <g
       id="g14476"
       ns0:preamble=""
       ns0:text="$X_5$ base\n"
       transform="matrix(2,0,0,2,-323.09149,7.9495267)">
      <defs
         id="defs14478">
        <g
           id="g14480">
          <symbol
             id="textext-833d245b-0"
             overflow="visible"
             style="overflow:visible">
            <path
               id="path14483"
               d=""
               style="stroke:none" />
          </symbol>
          <symbol
             id="textext-833d245b-1"
             overflow="visible"
             style="overflow:visible">
            <path
               id="path14486"
               d="M 4.828125,-4.09375 L 4,-6.078125 C 3.96875,-6.15625 3.953125,-6.203125 3.953125,-6.203125 C 3.953125,-6.265625 4.109375,-6.453125 4.53125,-6.5 C 4.640625,-6.515625 4.734375,-6.515625 4.734375,-6.6875 C 4.734375,-6.8125 4.609375,-6.8125 4.578125,-6.8125 C 4.171875,-6.8125 3.75,-6.78125 3.328125,-6.78125 C 3.078125,-6.78125 2.46875,-6.8125 2.21875,-6.8125 C 2.15625,-6.8125 2.03125,-6.8125 2.03125,-6.609375 C 2.03125,-6.5 2.140625,-6.5 2.265625,-6.5 C 2.859375,-6.5 2.921875,-6.40625 3.015625,-6.1875 L 4.1875,-3.40625 L 2.078125,-1.140625 C 2.03125,-1.09375 2.015625,-1.078125 1.953125,-1.03125 C 1.46875,-0.5 1,-0.34375 0.484375,-0.3125 C 0.359375,-0.296875 0.265625,-0.296875 0.265625,-0.109375 C 0.265625,-0.09375 0.265625,0 0.40625,0 C 0.703125,0 1.03125,-0.03125 1.328125,-0.03125 C 1.703125,-0.03125 2.09375,0 2.453125,0 C 2.515625,0 2.625,0 2.625,-0.203125 C 2.625,-0.296875 2.53125,-0.3125 2.515625,-0.3125 C 2.421875,-0.3125 2.109375,-0.34375 2.109375,-0.625 C 2.109375,-0.78125 2.265625,-0.9375 2.375,-1.0625 L 3.40625,-2.140625 C 3.703125,-2.46875 4.09375,-2.875 4.296875,-3.125 L 5.296875,-0.734375 C 5.34375,-0.625 5.359375,-0.625 5.359375,-0.59375 C 5.359375,-0.515625 5.15625,-0.34375 4.78125,-0.3125 C 4.671875,-0.296875 4.578125,-0.296875 4.578125,-0.125 C 4.578125,0 4.6875,0 4.71875,0 C 5,0 5.703125,-0.03125 5.984375,-0.03125 C 6.234375,-0.03125 6.84375,0 7.09375,0 C 7.15625,0 7.28125,0 7.28125,-0.1875 C 7.28125,-0.3125 7.171875,-0.3125 7.09375,-0.3125 C 6.4375,-0.3125 6.40625,-0.34375 6.234375,-0.75 C 5.859375,-1.671875 5.1875,-3.234375 4.953125,-3.828125 C 5.625,-4.53125 6.671875,-5.71875 7,-5.984375 C 7.28125,-6.234375 7.671875,-6.46875 8.265625,-6.5 C 8.390625,-6.515625 8.484375,-6.515625 8.484375,-6.703125 C 8.484375,-6.703125 8.484375,-6.8125 8.359375,-6.8125 C 8.0625,-6.8125 7.71875,-6.78125 7.421875,-6.78125 C 7.046875,-6.78125 6.671875,-6.8125 6.3125,-6.8125 C 6.25,-6.8125 6.125,-6.8125 6.125,-6.609375 C 6.125,-6.546875 6.171875,-6.515625 6.234375,-6.5 C 6.328125,-6.484375 6.640625,-6.46875 6.640625,-6.1875 C 6.640625,-6.046875 6.53125,-5.921875 6.453125,-5.828125 L 4.828125,-4.09375 z"
               style="stroke:none" />
          </symbol>
          <symbol
             id="textext-833d245b-2"
             overflow="visible"
             style="overflow:visible">
            <path
               id="path14489"
               d=""
               style="stroke:none" />
          </symbol>
          <symbol
             id="textext-833d245b-3"
             overflow="visible"
             style="overflow:visible">
            <path
               id="path14492"
               d="M 1.078125,-3.890625 C 1.4375,-3.796875 1.640625,-3.796875 1.75,-3.796875 C 2.671875,-3.796875 3.21875,-4.421875 3.21875,-4.53125 C 3.21875,-4.609375 3.171875,-4.625 3.140625,-4.625 C 3.125,-4.625 3.109375,-4.625 3.078125,-4.609375 C 2.90625,-4.546875 2.546875,-4.40625 2.03125,-4.40625 C 1.828125,-4.40625 1.46875,-4.421875 1.015625,-4.59375 C 0.9375,-4.625 0.921875,-4.625 0.921875,-4.625 C 0.828125,-4.625 0.828125,-4.546875 0.828125,-4.4375 L 0.828125,-2.390625 C 0.828125,-2.265625 0.828125,-2.1875 0.9375,-2.1875 C 1,-2.1875 1.015625,-2.1875 1.078125,-2.28125 C 1.375,-2.65625 1.8125,-2.71875 2.046875,-2.71875 C 2.46875,-2.71875 2.65625,-2.390625 2.6875,-2.328125 C 2.8125,-2.09375 2.859375,-1.828125 2.859375,-1.421875 C 2.859375,-1.21875 2.859375,-0.8125 2.640625,-0.5 C 2.46875,-0.25 2.171875,-0.078125 1.828125,-0.078125 C 1.375,-0.078125 0.90625,-0.328125 0.734375,-0.796875 C 1,-0.78125 1.140625,-0.953125 1.140625,-1.140625 C 1.140625,-1.4375 0.875,-1.484375 0.78125,-1.484375 C 0.78125,-1.484375 0.4375,-1.484375 0.4375,-1.109375 C 0.4375,-0.484375 1.015625,0.140625 1.84375,0.140625 C 2.734375,0.140625 3.515625,-0.515625 3.515625,-1.40625 C 3.515625,-2.1875 2.921875,-2.90625 2.0625,-2.90625 C 1.75,-2.90625 1.390625,-2.84375 1.078125,-2.578125 L 1.078125,-3.890625 z"
               style="stroke:none" />
          </symbol>
          <symbol
             id="textext-833d245b-4"
             overflow="visible"
             style="overflow:visible">
            <path
               id="path14495"
               d=""
               style="stroke:none" />
          </symbol>
          <symbol
             id="textext-833d245b-5"
             overflow="visible"
             style="overflow:visible">
            <path
               id="path14498"
               d="M 1.71875,-3.765625 L 1.71875,-6.921875 L 0.28125,-6.8125 L 0.28125,-6.5 C 0.984375,-6.5 1.0625,-6.4375 1.0625,-5.9375 L 1.0625,0 L 1.3125,0 C 1.3125,-0.015625 1.390625,-0.15625 1.671875,-0.625 C 1.8125,-0.390625 2.234375,0.109375 2.96875,0.109375 C 4.15625,0.109375 5.1875,-0.875 5.1875,-2.15625 C 5.1875,-3.421875 4.21875,-4.40625 3.078125,-4.40625 C 2.296875,-4.40625 1.875,-3.9375 1.71875,-3.765625 z M 1.75,-1.140625 L 1.75,-3.1875 C 1.75,-3.375 1.75,-3.390625 1.859375,-3.546875 C 2.25,-4.109375 2.796875,-4.1875 3.03125,-4.1875 C 3.484375,-4.1875 3.84375,-3.921875 4.078125,-3.546875 C 4.34375,-3.140625 4.359375,-2.578125 4.359375,-2.15625 C 4.359375,-1.796875 4.34375,-1.203125 4.0625,-0.75 C 3.84375,-0.4375 3.46875,-0.109375 2.9375,-0.109375 C 2.484375,-0.109375 2.125,-0.34375 1.890625,-0.71875 C 1.75,-0.921875 1.75,-0.953125 1.75,-1.140625 z"
               style="stroke:none" />
          </symbol>
          <symbol
             id="textext-833d245b-6"
             overflow="visible"
             style="overflow:visible">
            <path
               id="path14501"
               d="M 3.3125,-0.75 C 3.359375,-0.359375 3.625,0.0625 4.09375,0.0625 C 4.3125,0.0625 4.921875,-0.078125 4.921875,-0.890625 L 4.921875,-1.453125 L 4.671875,-1.453125 L 4.671875,-0.890625 C 4.671875,-0.3125 4.421875,-0.25 4.3125,-0.25 C 3.984375,-0.25 3.9375,-0.703125 3.9375,-0.75 L 3.9375,-2.734375 C 3.9375,-3.15625 3.9375,-3.546875 3.578125,-3.921875 C 3.1875,-4.3125 2.6875,-4.46875 2.21875,-4.46875 C 1.390625,-4.46875 0.703125,-4 0.703125,-3.34375 C 0.703125,-3.046875 0.90625,-2.875 1.171875,-2.875 C 1.453125,-2.875 1.625,-3.078125 1.625,-3.328125 C 1.625,-3.453125 1.578125,-3.78125 1.109375,-3.78125 C 1.390625,-4.140625 1.875,-4.25 2.1875,-4.25 C 2.6875,-4.25 3.25,-3.859375 3.25,-2.96875 L 3.25,-2.609375 C 2.734375,-2.578125 2.046875,-2.546875 1.421875,-2.25 C 0.671875,-1.90625 0.421875,-1.390625 0.421875,-0.953125 C 0.421875,-0.140625 1.390625,0.109375 2.015625,0.109375 C 2.671875,0.109375 3.125,-0.296875 3.3125,-0.75 z M 3.25,-2.390625 L 3.25,-1.390625 C 3.25,-0.453125 2.53125,-0.109375 2.078125,-0.109375 C 1.59375,-0.109375 1.1875,-0.453125 1.1875,-0.953125 C 1.1875,-1.5 1.609375,-2.328125 3.25,-2.390625 z"
               style="stroke:none" />
          </symbol>
          <symbol
             id="textext-833d245b-7"
             overflow="visible"
             style="overflow:visible">
            <path
               id="path14504"
               d="M 2.078125,-1.9375 C 2.296875,-1.890625 3.109375,-1.734375 3.109375,-1.015625 C 3.109375,-0.515625 2.765625,-0.109375 1.984375,-0.109375 C 1.140625,-0.109375 0.78125,-0.671875 0.59375,-1.53125 C 0.5625,-1.65625 0.5625,-1.6875 0.453125,-1.6875 C 0.328125,-1.6875 0.328125,-1.625 0.328125,-1.453125 L 0.328125,-0.125 C 0.328125,0.046875 0.328125,0.109375 0.4375,0.109375 C 0.484375,0.109375 0.5,0.09375 0.6875,-0.09375 C 0.703125,-0.109375 0.703125,-0.125 0.890625,-0.3125 C 1.328125,0.09375 1.78125,0.109375 1.984375,0.109375 C 3.125,0.109375 3.59375,-0.5625 3.59375,-1.28125 C 3.59375,-1.796875 3.296875,-2.109375 3.171875,-2.21875 C 2.84375,-2.546875 2.453125,-2.625 2.03125,-2.703125 C 1.46875,-2.8125 0.8125,-2.9375 0.8125,-3.515625 C 0.8125,-3.875 1.0625,-4.28125 1.921875,-4.28125 C 3.015625,-4.28125 3.078125,-3.375 3.09375,-3.078125 C 3.09375,-2.984375 3.1875,-2.984375 3.203125,-2.984375 C 3.34375,-2.984375 3.34375,-3.03125 3.34375,-3.21875 L 3.34375,-4.234375 C 3.34375,-4.390625 3.34375,-4.46875 3.234375,-4.46875 C 3.1875,-4.46875 3.15625,-4.46875 3.03125,-4.34375 C 3,-4.3125 2.90625,-4.21875 2.859375,-4.1875 C 2.484375,-4.46875 2.078125,-4.46875 1.921875,-4.46875 C 0.703125,-4.46875 0.328125,-3.796875 0.328125,-3.234375 C 0.328125,-2.890625 0.484375,-2.609375 0.75,-2.390625 C 1.078125,-2.140625 1.359375,-2.078125 2.078125,-1.9375 z"
               style="stroke:none" />
          </symbol>
          <symbol
             id="textext-833d245b-8"
             overflow="visible"
             style="overflow:visible">
            <path
               id="path14507"
               d="M 3.890625,-2.296875 C 4.109375,-2.296875 4.140625,-2.296875 4.140625,-2.515625 C 4.140625,-3.5 3.59375,-4.46875 2.359375,-4.46875 C 1.203125,-4.46875 0.28125,-3.4375 0.28125,-2.1875 C 0.28125,-0.859375 1.328125,0.109375 2.46875,0.109375 C 3.6875,0.109375 4.140625,-1 4.140625,-1.1875 C 4.140625,-1.28125 4.0625,-1.3125 4,-1.3125 C 3.921875,-1.3125 3.890625,-1.25 3.875,-1.171875 C 3.53125,-0.140625 2.625,-0.140625 2.53125,-0.140625 C 2.03125,-0.140625 1.640625,-0.4375 1.40625,-0.8125 C 1.109375,-1.28125 1.109375,-1.9375 1.109375,-2.296875 L 3.890625,-2.296875 z M 1.109375,-2.515625 C 1.171875,-4 2.015625,-4.25 2.359375,-4.25 C 3.375,-4.25 3.484375,-2.90625 3.484375,-2.515625 L 1.109375,-2.515625 z"
               style="stroke:none" />
          </symbol>
        </g>
      </defs>
      <g
         id="textext-833d245b-9">
        <g
           id="g14510"
           style="fill:#000000;fill-opacity:1">
          <use
             id="use14512"
             y="134.765"
             x="223.43201"
             xlink:href="#textext-833d245b-1"
             width="540"
             height="360" />
        </g>
        <g
           id="g14514"
           style="fill:#000000;fill-opacity:1">
          <use
             id="use14516"
             y="136.259"
             x="231.686"
             xlink:href="#textext-833d245b-3"
             width="540"
             height="360" />
        </g>
        <g
           id="g14518"
           style="fill:#000000;fill-opacity:1">
          <use
             id="use14520"
             y="134.765"
             x="239.476"
             xlink:href="#textext-833d245b-5"
             width="540"
             height="360" />
          <use
             id="use14522"
             y="134.765"
             x="245.01122"
             xlink:href="#textext-833d245b-6"
             width="540"
             height="360" />
          <use
             id="use14524"
             y="134.765"
             x="249.99252"
             xlink:href="#textext-833d245b-7"
             width="540"
             height="360" />
          <use
             id="use14526"
             y="134.765"
             x="253.92177"
             xlink:href="#textext-833d245b-8"
             width="540"
             height="360" />
        </g>
      </g>
    </g>
    <path
       style="fill:none;fill-rule:evenodd;stroke:#000000;stroke-width:0.99921262;stroke-linecap:butt;stroke-linejoin:miter;marker-end:url(#Arrow1Mend);stroke-miterlimit:4;stroke-dasharray:none;stroke-opacity:1"
       d="M 121.5142,265.1735 C 105.04732,244.16404 105.04732,244.16404 105.04732,244.16404"
       id="path14690" />
  </g>
</svg>
